PathFileType	4	(X/Y/Z)	Patient4_TMGait_0pt4_02_left_04.trc.trc
DataRate	CameraRate	NumFrames	NumMarkers	Units	OrigDataRate	OrigDataStartFrame	OrigNumFrames
72.916666666667	72.916666666667	4	33	mm	72.916666666667	124	       141
Frame#	Time	Sacral			L.Shoulder			Chest			R.Shoulder			Neck			R.ASIS			L.ASIS			R.Thigh.Superior			R.Thigh.Lateral			R.Thigh.Inferior			R.Patella			L.Thigh.Superior			L.Thigh.Lateral			L.Thigh.Inferior			L.Patella			L.Shank.Superior			L.Shank.Lateral			L.Shank.Inferior			R.Shank.Superior			R.Shank.Lateral			R.Shank.Inferior			R.Heel			R.Midfoot.Superior			R.Midfoot.Lateral			R.Toe			L.Heel			L.Midfoot.Lateral			L.Midfoot.Superior			L.Toe			L.Elbow			L.Wrist			R.Elbow			R.Wrist			
		X1	Y1	Z1	X2	Y2	Z2	X3	Y3	Z3	X4	Y4	Z4	X5	Y5	Z5	X6	Y6	Z6	X7	Y7	Z7	X8	Y8	Z8	X9	Y9	Z9	X10	Y10	Z10	X11	Y11	Z11	X12	Y12	Z12	X13	Y13	Z13	X14	Y14	Z14	X15	Y15	Z15	X16	Y16	Z16	X17	Y17	Z17	X18	Y18	Z18	X19	Y19	Z19	X20	Y20	Z20	X21	Y21	Z21	X22	Y22	Z22	X23	Y23	Z23	X24	Y24	Z24	X25	Y25	Z25	X26	Y26	Z26	X27	Y27	Z27	X28	Y28	Z28	X29	Y29	Z29	X30	Y30	Z30	X31	Y31	Z31	X32	Y32	Z32	X33	Y33	Z33	

124	6.956857142857	854.384641790465	1000.497453282243	529.985232517727	1003.624499386725	1430.500695306397	328.779412689040	1129.875961545005	1360.971253885633	471.903988181136	1074.177982941249	1432.628503293260	656.506330168212	1008.983628750995	1489.385315561441	486.329959336945	1094.477339247481	936.935266136990	619.253258573286	1048.503223008074	955.737272131961	347.250740462397	1093.221958397339	724.732932241247	593.312871874754	993.464792404484	629.598706601930	662.150658165593	1049.759310949891	564.496760258206	579.612998910642	1032.777825503299	479.631160904218	585.502468019285	1121.323203280367	764.796593670870	370.667688237932	1060.796901653606	635.822995525040	301.527788002202	1166.719370118337	575.939661503374	355.054921609467	1188.202694180713	510.015809350045	353.480420409793	1169.915026085969	437.675615486975	344.093534871900	1096.436048445223	310.614335011308	297.099629488887	1181.341584481564	208.183465172037	348.596375807813	994.763281587140	396.034817701614	594.078894402409	915.893049453779	301.095623372075	661.883827241780	941.565350169666	202.196692820965	594.895898516925	793.159801733194	43.416335595706	570.898859307025	965.130155851207	95.791749796212	601.397190050883	878.372449882414	36.614309241444	643.468914913628	1086.269960173288	42.177592197983	625.402213696204	1089.241683213510	39.554234745306	391.241336844703	1159.261567715929	38.611308068919	307.568206714281	1238.253465946365	106.889608096954	327.060237451910	1367.122054942312	64.651120342612	293.667653376954	896.100029185375	1096.193026813040	218.579219281937	918.514267709490	838.229234292555	175.858440826007	1223.131077970042	1124.253636444675	762.390571066658	1453.972367761733	1180.840687771046	678.294182644496	
125	6.970571428571	855.473814032548	999.434177192120	527.122295006659	1003.657218006802	1429.276521591061	325.468372885345	1129.878911588340	1360.560777060310	468.974638277757	1073.457522744842	1432.126472040493	653.446651859600	1008.559668344048	1488.530876136756	483.011375828852	1095.509649134815	936.210846265049	617.385255404814	1050.370509576804	954.501197088320	345.434924952800	1094.016526644419	723.681966777765	591.903320366275	993.450280133175	628.883329420895	660.379748704988	1049.754938083709	563.391011953779	578.186845856862	1032.192880812004	478.085151215064	583.982656673422	1123.419415839426	763.068198504711	369.774533724384	1062.208211978793	634.394864844860	301.079850490218	1167.724858224631	574.517412929664	355.430771031045	1188.025814166666	507.564588958949	354.340062933807	1169.087769971297	434.960166340074	344.684523528783	1093.794289232542	308.920271477671	297.627989842467	1176.439996551032	205.198459816833	350.054285237988	993.094126271927	394.954607807459	592.767845229739	913.165726325830	301.101857174777	660.898012769375	937.549798720601	201.717041093550	594.309384192910	787.693787750820	43.691074403186	570.972610587843	959.759527254945	95.788928688331	601.334191644902	872.929552351526	36.660184361054	643.464250348240	1080.847671131701	42.000103900034	625.473143670789	1080.739858948413	38.762188351306	392.501008469378	1150.708322489444	37.220009925224	308.731577190124	1231.269363118500	103.391412020573	329.133220127357	1359.504383996250	58.497222132464	295.252645826780	896.470837157859	1094.740957928200	215.765090369351	918.920075055324	836.734677218232	173.391190429068	1222.255865461241	1123.083774509415	759.028949627628	1453.744817679189	1178.082192294880	674.962556783510	
126	6.984285714286	856.484029873709	998.526358348031	524.247652743117	1003.829956004420	1428.132127882563	322.032213335801	1130.005631977988	1360.197870491877	465.921108500984	1072.935324794601	1431.789726142230	650.247017240046	1008.306355393174	1487.797118119863	479.538193537611	1096.512573449274	935.544941640349	615.299991772781	1052.004333659703	953.539686200597	343.439931387719	1094.983136428697	722.744067964198	590.159884016936	993.845946630359	628.166764029347	658.349715325143	1050.167870708773	562.328550244222	576.441119873669	1032.080311955089	476.499012429486	582.203088699778	1125.452285687068	761.814158939197	368.895929783322	1064.026856893471	633.525680052671	300.285142794215	1168.988970783094	573.617441831872	355.708756852508	1188.147888028498	505.672428316480	354.964531130935	1168.657399608784	432.812592418044	344.951849694890	1091.855561599704	307.757527435497	297.552744744237	1172.185081590317	202.860249967601	351.040904324414	991.797194351194	393.848267957032	591.258239725715	910.766647139308	301.189086441729	659.771863789661	933.725192354539	201.286745324730	593.641831434387	782.259747310384	44.173542861951	571.078681878022	954.483673908820	95.827328889283	601.277580935567	867.537815591322	36.791770279204	643.459162247053	1075.489156727455	41.751702476535	625.553204115994	1073.191499444750	38.256575472294	393.231224063580	1143.171753079123	36.313414801672	309.428308032092	1224.930543886432	100.780861358607	330.691523808151	1352.684798648014	53.835610703744	296.465841189913	897.428129558885	1093.206203300934	212.748624878348	920.132067187495	835.149650624362	170.759995185228	1220.738472279561	1121.759402246389	756.008651691351	1453.227784471678	1174.181316721520	672.151175990639	
127	6.998000000000	857.407560076322	997.800200924273	521.378206921197	1004.111046845005	1427.123851028409	318.519231524306	1130.244764036595	1359.903520819169	462.762834112166	1072.638124202671	1431.641354837068	646.931572968005	1008.224667430799	1487.217346548049	475.953509421974	1097.467451374613	934.987186857420	612.973109358569	1053.357716068902	952.891487907772	341.211878665191	1096.050699217519	721.971409988470	588.063226373172	994.598158645036	627.507866481561	656.084455776234	1050.945524957337	561.358543281175	574.408961544240	1032.404938370529	474.921960266740	580.234010923536	1127.399290529958	761.125402634591	367.937903420920	1066.218231886062	633.200068492483	299.142357554596	1170.509419625749	573.225605722492	355.754807049328	1188.589973158192	504.335079117650	355.256830367686	1168.612191448647	431.215466494392	344.890263504308	1090.558840386774	307.113698903670	296.931069971897	1168.517958958708	201.154107748499	351.591749511563	990.841415034465	392.771258307404	589.605156435995	908.661536468489	301.407847948727	658.540327946212	930.090639613896	200.960350044557	592.927562350602	776.867097313271	44.936773321531	571.221821207707	949.327008993032	95.923058922608	601.244132957237	862.204199837741	37.048226327513	643.459713046822	1070.195817773828	41.425220001761	625.641964179800	1066.554591087743	38.006251237306	393.528747382035	1136.585709291674	35.827189783454	309.735383833576	1219.177477040374	99.025708590493	331.745720106150	1346.598345607345	50.633760364546	297.292968423660	898.975879798470	1091.651093138521	209.543950139293	922.183635141243	833.536270622912	167.993688659454	1218.600028534574	1120.312560328902	753.288117834101	1452.415737568602	1169.125581996044	669.860415736452	
